# Blender v2.79 (sub 0) OBJ File: 'Table.blend'
# www.blender.org
mtllib Table.mtl
o Plane
v -2.000000 1.588110 1.500000
v 2.000000 1.588110 1.500000
v -2.000000 1.588110 -1.500000
v 2.000000 1.588110 -1.500000
v -2.000000 1.588110 -1.364882
v -2.000000 1.588110 1.364882
v 2.000000 1.588110 1.364882
v 2.000000 1.588110 -1.364882
v -1.881515 1.588110 1.500000
v 1.881515 1.588110 1.500000
v 1.881515 1.588110 -1.500000
v -1.881515 1.588110 -1.500000
v 1.881515 1.588110 1.364882
v -1.881515 1.588110 1.364882
v 1.881515 1.588110 -1.364882
v -1.881515 1.588110 -1.364882
v -1.589292 1.588110 1.500000
v 1.589292 1.588110 1.500000
v 1.589292 1.588110 -1.500000
v -1.589292 1.588110 -1.500000
v 1.589292 1.588110 1.364882
v -1.589292 1.588110 1.364882
v 1.589292 1.588110 -1.364882
v -1.589292 1.588110 -1.364882
v -2.000000 1.588110 -1.094146
v -2.000000 1.588110 1.094146
v 2.000000 1.588110 1.094146
v 2.000000 1.588110 -1.094146
v -1.881515 1.588110 1.094146
v -1.881515 1.588110 -1.094146
v 1.881515 1.588110 1.094146
v 1.881515 1.588110 -1.094146
v -1.589292 1.588110 1.094146
v -1.589292 1.588110 -1.094146
v 1.589292 1.588110 1.094146
v 1.589292 1.588110 -1.094146
v -2.000000 1.699255 1.500000
v 2.000000 1.699255 1.500000
v -2.000000 1.699255 -1.500000
v 2.000000 1.699255 -1.500000
v -2.000000 1.699255 -1.364882
v -2.000000 1.699255 1.364882
v 2.000000 1.699255 1.364882
v 2.000000 1.699255 -1.364882
v -1.881515 1.699255 1.500000
v 1.881515 1.699255 1.500000
v 1.881515 1.699255 -1.500000
v -1.881515 1.699255 -1.500000
v 1.881515 1.699255 1.364882
v -1.881515 1.699255 1.364882
v 1.881515 1.699255 -1.364882
v -1.881515 1.699255 -1.364882
v -1.589292 1.699255 1.500000
v 1.589292 1.699255 1.500000
v 1.589292 1.699255 -1.500000
v -1.589292 1.699255 -1.500000
v 1.589292 1.699255 1.364882
v -1.589292 1.699255 1.364882
v 1.589292 1.699255 -1.364882
v -1.589292 1.699255 -1.364882
v -2.000000 1.699255 -1.094146
v -2.000000 1.699255 1.094146
v 2.000000 1.699255 1.094146
v 2.000000 1.699255 -1.094146
v -1.881515 1.699255 1.094146
v -1.881515 1.699255 -1.094146
v 1.881515 1.699255 1.094146
v 1.881515 1.699255 -1.094146
v -1.589292 1.699255 1.094146
v -1.589292 1.699255 -1.094146
v 1.589292 1.699255 1.094146
v 1.589292 1.699255 -1.094146
v -1.654296 1.116266 1.299878
v -1.816511 1.116266 1.299878
v -1.654296 1.116266 -1.299878
v -1.816511 1.116266 -1.299878
v -1.816511 1.116266 -1.159150
v 1.816511 1.116266 -1.159150
v 1.816511 1.116266 -1.299878
v 1.816511 1.116266 1.299878
v 1.654296 1.116266 1.299878
v 1.654296 1.116266 -1.299878
v -1.654296 1.116266 -1.159150
v 1.654296 1.116266 -1.159150
v -1.816511 1.116266 1.159150
v 1.816511 1.116266 1.159150
v -1.654296 1.116266 1.159150
v 1.654296 1.116266 1.159150
v -1.589292 1.116266 1.364882
v -1.881515 1.116266 1.364882
v -1.589292 1.116266 -1.364882
v -1.881515 1.116266 -1.364882
v -1.881515 1.116266 -1.094146
v 1.881515 1.116266 -1.094146
v 1.881515 1.116266 -1.364882
v 1.881515 1.116266 1.364882
v 1.589292 1.116266 1.364882
v 1.589292 1.116266 -1.364882
v -1.589292 1.116266 -1.094146
v 1.589292 1.116266 -1.094146
v -1.881515 1.116266 1.094146
v 1.881515 1.116266 1.094146
v -1.589292 1.116266 1.094146
v 1.589292 1.116266 1.094146
v -1.854296 0.093195 1.099878
v -1.616511 0.093195 1.099878
v -1.854296 0.093195 -1.099878
v -1.616511 0.093195 -1.099878
v -1.616511 0.093195 -1.359150
v 1.616511 0.093195 -1.359150
v 1.616511 0.093195 -1.099878
v 1.616511 0.093195 1.099878
v 1.854296 0.093195 1.099878
v 1.854296 0.093195 -1.099878
v -1.854296 0.093195 -1.359150
v 1.854296 0.093195 -1.359150
v -1.616511 0.093195 1.359150
v 1.616511 0.093195 1.359150
v -1.854296 0.093195 1.359150
v 1.854296 0.093195 1.359150
v -1.654296 0.093195 1.299878
v -1.816511 0.093195 1.299878
v -1.654296 0.093195 -1.299878
v -1.816511 0.093195 -1.299878
v -1.816511 0.093195 -1.159150
v 1.816511 0.093195 -1.159150
v 1.816511 0.093195 -1.299878
v 1.816511 0.093195 1.299878
v 1.654296 0.093195 1.299878
v 1.654296 0.093195 -1.299878
v -1.654296 0.093195 -1.159150
v 1.654296 0.093195 -1.159150
v -1.816511 0.093195 1.159150
v 1.816511 0.093195 1.159150
v -1.654296 0.093195 1.159150
v 1.654296 0.093195 1.159150
v -1.854296 -0.003395 1.099878
v -1.616511 -0.003395 1.099878
v -1.854296 -0.003395 -1.099878
v -1.616511 -0.003395 -1.099878
v -1.616511 -0.003395 -1.359150
v 1.616511 -0.003395 -1.359150
v 1.616511 -0.003395 -1.099878
v 1.616511 -0.003395 1.099878
v 1.854296 -0.003395 1.099878
v 1.854296 -0.003395 -1.099878
v -1.854296 -0.003395 -1.359150
v 1.854296 -0.003395 -1.359150
v -1.616511 -0.003395 1.359150
v 1.616511 -0.003395 1.359150
v -1.854296 -0.003395 1.359150
v 1.854296 -0.003395 1.359150
vt 0.021334 0.019748
vt 0.000000 0.019748
vt 0.000000 0.000000
vt 0.021334 0.000000
vt 0.473677 0.019747
vt 0.452342 0.019747
vt 0.452342 0.000000
vt 0.473677 0.000000
vt 0.064081 0.019748
vt 0.064081 0.000000
vt 0.064081 0.666667
vt 0.021334 0.666667
vt 0.021334 0.646919
vt 0.064081 0.646919
vt 0.748385 0.823948
vt 0.705638 0.823948
vt 0.705638 0.745307
vt 0.748385 0.745307
vt 0.473677 0.666667
vt 0.452343 0.666667
vt 0.452343 0.646919
vt 0.473677 0.646919
vt 0.473677 0.068451
vt 0.452342 0.068451
vt 0.000000 0.666667
vt 0.000000 0.646919
vt 0.021334 0.068451
vt 0.000000 0.068451
vt 0.000000 0.598215
vt 0.021334 0.598215
vt 0.452343 0.598215
vt 0.473677 0.598215
vt 0.382660 0.745307
vt 0.425407 0.745307
vt 0.425407 0.823948
vt 0.382660 0.823948
vt 0.064081 0.598215
vt 0.064081 0.068451
vt 0.409595 0.598215
vt 0.409595 0.068451
vt 0.468154 0.745307
vt 0.510901 0.745307
vt 0.510901 0.823948
vt 0.468154 0.823948
vt 0.409595 0.646919
vt 0.474939 0.666667
vt 0.521079 0.666667
vt 0.521079 0.745307
vt 0.474939 0.745307
vt 0.409595 0.019747
vt 0.409595 0.666667
vt 0.409595 0.000000
vt 0.926019 0.019747
vt 0.926019 0.000000
vt 0.947353 0.000000
vt 0.947353 0.019747
vt 0.473677 0.019748
vt 0.473677 0.000000
vt 0.495011 0.000000
vt 0.495011 0.019748
vt 0.883272 0.019747
vt 0.883272 0.000000
vt 0.883272 0.666667
vt 0.883272 0.646919
vt 0.926019 0.646919
vt 0.926019 0.666667
vt 0.883272 0.068451
vt 0.926019 0.068451
vt 0.473677 0.666667
vt 0.473677 0.646919
vt 0.495011 0.646919
vt 0.495011 0.666667
vt 0.473677 0.068451
vt 0.495011 0.068451
vt 0.947353 0.646919
vt 0.947353 0.666667
vt 0.947353 0.068451
vt 0.926019 0.598215
vt 0.947353 0.598215
vt 0.473677 0.598215
vt 0.495011 0.598215
vt 0.883272 0.598215
vt 0.537758 0.068451
vt 0.537758 0.598215
vt 0.537758 0.646919
vt 0.537758 0.019748
vt 0.537758 0.666667
vt 0.537758 0.000000
vt 0.964902 0.666667
vt 0.964902 0.646919
vt 0.982451 0.646919
vt 0.982451 0.666667
vt 0.964902 0.598215
vt 0.964902 0.068451
vt 0.982451 0.068451
vt 0.982451 0.598215
vt 0.982451 0.977480
vt 0.982451 0.932358
vt 1.000000 0.932358
vt 1.000000 0.977480
vt 0.964902 0.646919
vt 0.964902 0.666667
vt 0.964902 0.019748
vt 0.982451 0.019748
vt 0.964902 0.019748
vt 0.964902 0.068451
vt 0.982451 0.567642
vt 1.000000 0.567642
vt 1.000000 0.000000
vt 1.000000 0.022520
vt 0.982451 0.022520
vt 0.982451 0.000000
vt 0.964902 0.000000
vt 0.964902 0.598215
vt 1.000000 0.432358
vt 1.000000 0.477480
vt 0.982451 0.477480
vt 0.982451 0.432358
vt 0.982451 1.000000
vt 1.000000 1.000000
vt 0.982451 0.522520
vt 1.000000 0.522520
vt 1.000000 0.500000
vt 0.982451 0.500000
vt 1.000000 0.067642
vt 0.982451 0.067642
vt 0.964902 0.000000
vt 0.982451 0.000000
vt 0.982451 0.500000
vt 1.000000 0.500000
vt 0.271560 0.666667
vt 0.293780 0.666667
vt 0.293780 0.837178
vt 0.271560 0.837178
vt 0.316000 0.837178
vt 0.293780 0.837178
vt 0.293780 0.666667
vt 0.316000 0.666667
vt 0.025613 0.666667
vt 0.051225 0.666667
vt 0.051225 0.837178
vt 0.025613 0.837178
vt 0.204900 0.666667
vt 0.227120 0.666667
vt 0.227120 0.837178
vt 0.204900 0.837178
vt 0.425407 0.745307
vt 0.468154 0.745307
vt 0.468154 0.823948
vt 0.425407 0.823948
vt 0.382660 0.666667
vt 0.428799 0.666667
vt 0.428799 0.745307
vt 0.382660 0.745307
vt 0.656105 0.823948
vt 0.613358 0.823948
vt 0.613358 0.745307
vt 0.656105 0.745307
vt 0.702245 0.823948
vt 0.659498 0.823948
vt 0.659498 0.745307
vt 0.702245 0.745307
vt 0.510901 0.745307
vt 0.553648 0.745307
vt 0.553648 0.823948
vt 0.510901 0.823948
vt 0.428799 0.666667
vt 0.474939 0.666667
vt 0.474939 0.745307
vt 0.428799 0.745307
vt 0.521079 0.666667
vt 0.567219 0.666667
vt 0.567219 0.745307
vt 0.521079 0.745307
vt 0.659498 0.666667
vt 0.705638 0.666667
vt 0.705638 0.745307
vt 0.659498 0.745307
vt 0.613358 0.666667
vt 0.659498 0.666667
vt 0.659498 0.745307
vt 0.596395 0.823948
vt 0.553648 0.823948
vt 0.553648 0.745307
vt 0.596395 0.745307
vt 0.705638 0.666667
vt 0.751777 0.666667
vt 0.751777 0.745307
vt 0.705638 0.745307
vt 0.567219 0.666667
vt 0.613358 0.666667
vt 0.613358 0.745307
vt 0.567219 0.745307
vt 0.780868 0.831881
vt 0.780868 0.804845
vt 0.791132 0.794011
vt 0.791132 0.842715
vt 0.758649 0.756141
vt 0.758649 0.783177
vt 0.748385 0.794011
vt 0.748385 0.745307
vt 0.780868 0.783177
vt 0.791132 0.794011
vt 0.784261 0.677501
vt 0.762041 0.677501
vt 0.751777 0.666667
vt 0.794525 0.666667
vt 0.415143 0.861818
vt 0.415143 0.834782
vt 0.425407 0.823948
vt 0.425407 0.872652
vt 0.762041 0.704536
vt 0.751777 0.715370
vt 0.780868 0.756141
vt 0.791132 0.745307
vt 0.784261 0.704536
vt 0.794525 0.715370
vt 0.758649 0.831881
vt 0.748385 0.842715
vt 0.392923 0.834782
vt 0.382660 0.823948
vt 0.758649 0.804845
vt 0.748385 0.794011
vt 0.392923 0.861818
vt 0.382660 0.872652
vt 0.030501 0.837178
vt 0.030501 0.876809
vt 0.015251 0.876809
vt 0.015251 0.837178
vt 0.091504 0.837178
vt 0.091504 0.876809
vt 0.076254 0.876809
vt 0.076254 0.837178
vt 0.045752 0.837178
vt 0.045752 0.876809
vt 0.030501 0.876809
vt 0.030501 0.837178
vt 0.794525 0.709879
vt 0.794525 0.666667
vt 0.809775 0.666667
vt 0.809775 0.709879
vt 0.382660 0.837178
vt 0.360440 0.837178
vt 0.360440 0.666667
vt 0.382660 0.666667
vt 0.360440 0.837178
vt 0.338220 0.837178
vt 0.338220 0.666667
vt 0.360440 0.666667
vt 0.227120 0.666667
vt 0.249340 0.666667
vt 0.249340 0.837178
vt 0.227120 0.837178
vt 0.076838 0.666667
vt 0.102450 0.666667
vt 0.102450 0.837178
vt 0.076838 0.837178
vt 0.102450 0.666667
vt 0.128063 0.666667
vt 0.128063 0.837178
vt 0.102450 0.837178
vt 0.000000 0.666667
vt 0.025613 0.666667
vt 0.025613 0.837178
vt 0.000000 0.837178
vt 0.051225 0.666667
vt 0.076838 0.666667
vt 0.076838 0.837178
vt 0.051225 0.837178
vt 0.338220 0.837178
vt 0.316000 0.837178
vt 0.316000 0.666667
vt 0.338220 0.666667
vt 0.179288 0.666667
vt 0.204900 0.666667
vt 0.204900 0.837178
vt 0.179288 0.837178
vt 0.249340 0.666667
vt 0.271560 0.666667
vt 0.271560 0.837178
vt 0.249340 0.837178
vt 0.153675 0.666667
vt 0.179288 0.666667
vt 0.179288 0.837178
vt 0.153675 0.837178
vt 0.128063 0.666667
vt 0.153675 0.666667
vt 0.153675 0.837178
vt 0.128063 0.837178
vt 0.743182 0.867160
vt 0.705638 0.867160
vt 0.737216 0.833827
vt 0.711604 0.833827
vt 0.659498 0.823948
vt 0.697042 0.823948
vt 0.665464 0.857281
vt 0.691076 0.857281
vt 0.697042 0.867160
vt 0.665464 0.833827
vt 0.500495 0.867160
vt 0.500495 0.823948
vt 0.532074 0.857281
vt 0.532074 0.833827
vt 0.500495 0.867160
vt 0.462951 0.867160
vt 0.494530 0.833827
vt 0.468917 0.833827
vt 0.538040 0.823948
vt 0.506461 0.857281
vt 0.659498 0.867160
vt 0.691076 0.833827
vt 0.538040 0.867160
vt 0.506461 0.833827
vt 0.743182 0.823948
vt 0.711604 0.857281
vt 0.462951 0.823948
vt 0.494530 0.857281
vt 0.705638 0.823948
vt 0.737216 0.857281
vt 0.500495 0.823948
vt 0.468917 0.857281
vt 0.613128 0.823948
vt 0.613128 0.867160
vt 0.575584 0.867160
vt 0.575584 0.823948
vt 0.650903 0.823948
vt 0.650903 0.867160
vt 0.613358 0.867160
vt 0.613358 0.823948
vt 0.575584 0.823948
vt 0.575584 0.867160
vt 0.538040 0.867160
vt 0.538040 0.823948
vt 0.462951 0.823948
vt 0.462951 0.867160
vt 0.425407 0.867160
vt 0.425407 0.823948
vt 0.122006 0.837178
vt 0.122006 0.876809
vt 0.106755 0.876809
vt 0.106755 0.837178
vt 0.596395 0.788519
vt 0.596395 0.745307
vt 0.611646 0.745307
vt 0.611646 0.788519
vt 0.106755 0.837178
vt 0.106755 0.876809
vt 0.091504 0.876809
vt 0.091504 0.837178
vt 0.791132 0.788519
vt 0.791132 0.745307
vt 0.806383 0.745307
vt 0.806383 0.788519
vt 0.015251 0.837178
vt 0.015251 0.876809
vt 0.000000 0.876809
vt 0.000000 0.837178
vt 0.076254 0.837178
vt 0.076254 0.876809
vt 0.061003 0.876809
vt 0.061003 0.837178
vt 0.806383 0.874943
vt 0.806383 0.831731
vt 0.821633 0.831731
vt 0.821633 0.874943
vt 0.061003 0.837178
vt 0.061003 0.876809
vt 0.045752 0.876809
vt 0.045752 0.837178
vt 0.806383 0.788519
vt 0.806383 0.745307
vt 0.821633 0.745307
vt 0.821633 0.788519
vt 0.806383 0.831731
vt 0.806383 0.788519
vt 0.821633 0.788519
vt 0.821633 0.831731
vt 0.791132 0.837223
vt 0.791132 0.794011
vt 0.806383 0.794011
vt 0.806383 0.837223
vt 0.809775 0.709879
vt 0.809775 0.666667
vt 0.825026 0.666667
vt 0.825026 0.709879
vn 0.0000 -1.0000 0.0000
vn 1.0000 0.0000 0.0000
vn -1.0000 0.0000 0.0000
vn 0.0000 0.0000 1.0000
vn 0.0000 1.0000 0.0000
vn 0.0000 0.0000 -1.0000
usemtl Table
s off
f 15/1/1 11/2/1 4/3/1 8/4/1
f 10/5/1 13/6/1 7/7/1 2/8/1
f 32/9/1 15/1/1 8/4/1 28/10/1
f 25/11/1 5/12/1 16/13/1 30/14/1
f 15/15/2 32/16/2 94/17/2 95/18/2
f 1/19/1 6/20/1 14/21/1 9/22/1
f 18/23/1 21/24/1 13/6/1 10/5/1
f 5/12/1 3/25/1 12/26/1 16/13/1
f 23/27/1 19/28/1 11/2/1 15/1/1
f 16/13/1 12/26/1 20/29/1 24/30/1
f 24/30/1 20/29/1 19/28/1 23/27/1
f 9/22/1 14/21/1 22/31/1 17/32/1
f 17/32/1 22/31/1 21/24/1 18/23/1
f 21/33/3 35/34/3 104/35/3 97/36/3
f 34/37/1 24/30/1 23/27/1 36/38/1
f 22/31/1 33/39/1 35/40/1 21/24/1
f 33/39/1 34/37/1 36/38/1 35/40/1
f 30/41/3 16/42/3 92/43/3 93/44/3
f 29/45/1 30/14/1 34/37/1 33/39/1
f 32/46/4 36/47/4 100/48/4 94/49/4
f 35/40/1 36/38/1 32/9/1 31/50/1
f 6/20/1 26/51/1 29/45/1 14/21/1
f 26/51/1 25/11/1 30/14/1 29/45/1
f 13/6/1 31/50/1 27/52/1 7/7/1
f 31/50/1 32/9/1 28/10/1 27/52/1
f 51/53/5 44/54/5 40/55/5 47/56/5
f 46/57/5 38/58/5 43/59/5 49/60/5
f 68/61/5 64/62/5 44/54/5 51/53/5
f 61/63/5 66/64/5 52/65/5 41/66/5
f 72/67/5 68/61/5 51/53/5 59/68/5
f 37/69/5 45/70/5 50/71/5 42/72/5
f 54/73/5 46/57/5 49/60/5 57/74/5
f 41/66/5 52/65/5 48/75/5 39/76/5
f 59/68/5 51/53/5 47/56/5 55/77/5
f 52/65/5 60/78/5 56/79/5 48/75/5
f 60/78/5 59/68/5 55/77/5 56/79/5
f 45/70/5 53/80/5 58/81/5 50/71/5
f 53/80/5 54/73/5 57/74/5 58/81/5
f 66/64/5 70/82/5 60/78/5 52/65/5
f 70/82/5 72/67/5 59/68/5 60/78/5
f 58/81/5 57/74/5 71/83/5 69/84/5
f 69/84/5 71/83/5 72/67/5 70/82/5
f 50/71/5 58/81/5 69/84/5 65/85/5
f 65/85/5 69/84/5 70/82/5 66/64/5
f 57/74/5 49/60/5 67/86/5 71/83/5
f 71/83/5 67/86/5 68/61/5 72/67/5
f 42/72/5 50/71/5 65/85/5 62/87/5
f 62/87/5 65/85/5 66/64/5 61/63/5
f 49/60/5 43/59/5 63/88/5 67/86/5
f 67/86/5 63/88/5 64/62/5 68/61/5
f 1/89/4 9/90/4 45/91/4 37/92/4
f 17/93/4 18/94/4 54/95/4 53/96/4
f 7/97/2 27/98/2 63/99/2 43/100/2
f 12/101/6 3/102/6 39/76/6 48/75/6
f 18/94/4 10/103/4 46/104/4 54/95/4
f 11/105/6 19/106/6 55/77/6 47/56/6
f 27/98/2 28/107/2 64/108/2 63/99/2
f 3/109/3 5/110/3 41/111/3 39/112/3
f 4/113/6 11/105/6 47/56/6 40/55/6
f 19/106/6 20/114/6 56/79/6 55/77/6
f 26/115/3 6/116/3 42/117/3 62/118/3
f 20/114/6 12/101/6 48/75/6 56/79/6
f 2/119/2 7/97/2 43/100/2 38/120/2
f 28/107/2 8/121/2 44/122/2 64/108/2
f 6/116/3 1/123/3 37/124/3 42/117/3
f 5/110/3 25/125/3 61/126/3 41/111/3
f 10/103/4 2/127/4 38/128/4 46/104/4
f 9/90/4 17/93/4 53/96/4 45/91/4
f 25/125/3 26/115/3 62/118/3 61/126/3
f 8/121/2 4/129/2 40/130/2 44/122/2
f 77/131/3 76/132/3 124/133/3 125/134/3
f 86/135/2 80/136/2 128/137/2 134/138/2
f 76/139/6 75/140/6 123/141/6 124/142/6
f 74/143/3 85/144/3 133/145/3 122/146/3
f 14/147/3 29/148/3 101/149/3 90/150/3
f 13/151/4 21/152/4 97/153/4 96/154/4
f 24/155/2 34/156/2 99/157/2 91/158/2
f 31/159/2 13/160/2 96/161/2 102/162/2
f 36/163/3 23/164/3 98/165/3 100/166/3
f 22/167/4 14/168/4 90/169/4 89/170/4
f 29/171/6 33/172/6 103/173/6 101/174/6
f 23/175/6 15/176/6 95/177/6 98/178/6
f 34/179/4 30/180/4 93/181/4 99/157/4
f 33/182/2 22/183/2 89/184/2 103/185/2
f 35/186/6 31/187/6 102/188/6 104/189/6
f 16/190/6 24/191/6 91/192/6 92/193/6
f 74/194/1 73/195/1 89/196/1 90/197/1
f 75/198/1 76/199/1 92/200/1 91/201/1
f 76/199/1 77/202/1 93/203/1 92/200/1
f 78/204/1 79/205/1 95/206/1 94/207/1
f 81/208/1 80/209/1 96/210/1 97/211/1
f 79/205/1 82/212/1 98/213/1 95/206/1
f 83/214/1 75/198/1 91/201/1 99/215/1
f 82/212/1 84/216/1 100/217/1 98/213/1
f 85/218/1 74/194/1 90/197/1 101/219/1
f 80/209/1 86/220/1 102/221/1 96/210/1
f 73/195/1 87/222/1 103/223/1 89/196/1
f 88/224/1 81/208/1 97/211/1 104/225/1
f 87/222/1 85/218/1 101/219/1 103/223/1
f 77/202/1 83/214/1 99/215/1 93/203/1
f 86/220/1 88/224/1 104/225/1 102/221/1
f 84/216/1 78/204/1 94/207/1 100/217/1
f 114/226/4 111/227/4 143/228/4 146/229/4
f 117/230/4 119/231/4 151/232/4 149/233/4
f 112/234/6 113/235/6 145/236/6 144/237/6
f 113/238/2 120/239/2 152/240/2 145/241/2
f 87/242/2 73/243/2 121/244/2 135/245/2
f 79/246/2 78/247/2 126/248/2 127/249/2
f 81/250/3 88/251/3 136/252/3 129/253/3
f 80/254/4 81/255/4 129/256/4 128/257/4
f 85/258/6 87/259/6 135/260/6 133/261/6
f 82/262/6 79/263/6 127/264/6 130/265/6
f 83/266/4 77/267/4 125/268/4 131/269/4
f 75/270/2 83/271/2 131/272/2 123/273/2
f 88/274/6 86/275/6 134/276/6 136/277/6
f 84/278/3 82/279/3 130/280/3 132/281/3
f 73/282/4 74/283/4 122/284/4 121/285/4
f 78/286/4 84/287/4 132/288/4 126/289/4
f 106/290/5 105/291/5 121/292/5 122/293/5
f 107/294/5 108/295/5 124/296/5 123/297/5
f 108/295/5 109/298/5 125/299/5 124/296/5
f 110/300/5 111/301/5 127/302/5 126/303/5
f 113/304/5 112/305/5 128/306/5 129/307/5
f 111/301/5 114/308/5 130/309/5 127/302/5
f 115/310/5 107/294/5 123/297/5 131/311/5
f 114/308/5 116/312/5 132/313/5 130/309/5
f 117/314/5 106/290/5 122/293/5 133/315/5
f 112/305/5 118/316/5 134/317/5 128/306/5
f 105/291/5 119/318/5 135/319/5 121/292/5
f 120/320/5 113/304/5 129/307/5 136/321/5
f 119/318/5 117/314/5 133/315/5 135/319/5
f 109/298/5 115/310/5 131/311/5 125/299/5
f 118/316/5 120/320/5 136/321/5 134/317/5
f 116/312/5 110/300/5 126/303/5 132/313/5
f 148/322/1 146/323/1 143/324/1 142/325/1
f 141/326/1 140/327/1 139/328/1 147/329/1
f 138/330/1 149/331/1 151/332/1 137/333/1
f 145/334/1 152/335/1 150/336/1 144/337/1
f 115/338/6 109/339/6 141/340/6 147/341/6
f 107/342/3 115/343/3 147/344/3 139/345/3
f 120/346/4 118/347/4 150/348/4 152/349/4
f 116/350/2 114/351/2 146/352/2 148/353/2
f 105/354/6 106/355/6 138/356/6 137/357/6
f 110/358/6 116/359/6 148/360/6 142/361/6
f 106/362/2 117/363/2 149/364/2 138/365/2
f 108/366/4 107/367/4 139/368/4 140/369/4
f 118/370/3 112/371/3 144/372/3 150/373/3
f 109/374/2 108/375/2 140/376/2 141/377/2
f 119/378/3 105/379/3 137/380/3 151/381/3
f 111/382/3 110/383/3 142/384/3 143/385/3
